<svg width="44" height="44" viewBox="0 0 44 44" fill="none" xmlns="http://www.w3.org/2000/svg"><ellipse cx="13.788" cy="13.6" rx="13.788" ry="13.6" fill="#FF1624"/><ellipse cx="22.304" cy="30.4" rx="13.788" ry="13.6" fill="#001D38"/><ellipse cx="30.212" cy="13.6" rx="13.788" ry="13.6" fill="#FFE153"/><path fill-rule="evenodd" clip-rule="evenodd" d="M9.121 26.401a13.427 13.427 0 0 0-.605 3.999c0 7.511 6.173 13.6 13.788 13.6s13.788-6.089 13.788-13.6c0-5.895-3.804-10.915-9.122-12.801-1.731 5.56-6.978 9.601-13.182 9.601-1.638 0-3.21-.282-4.667-.799z" fill="#001D38"/><path fill-rule="evenodd" clip-rule="evenodd" d="M26.97 17.599c-1.731 5.56-6.978 9.601-13.182 9.601-1.638 0-3.21-.282-4.667-.799 1.731-5.56 6.978-9.601 13.182-9.601 1.638 0 3.21.282 4.667.799z" fill="#FF1624"/><path fill-rule="evenodd" clip-rule="evenodd" d="M26.907 17.599a13.63 13.63 0 0 1-4.97 6.927 13.637 13.637 0 0 1-4.905-6.722 13.914 13.914 0 0 1 5.209-1.004c1.638 0 3.209.282 4.666.799z" fill="#125899"/><path d="M27.076 13.6c0 7.228-5.943 13.1-13.288 13.1C6.443 26.7.5 20.828.5 13.6S6.443.5 13.788.5c7.345 0 13.288 5.872 13.288 13.1z" stroke="#fff"/><path d="M43.5 13.6c0 7.228-5.943 13.1-13.288 13.1-7.345 0-13.288-5.872-13.288-13.1S22.867.5 30.212.5C37.557.5 43.5 6.372 43.5 13.6z" stroke="#fff"/><path d="M35.592 30.4c0 7.229-5.943 13.1-13.288 13.1-7.346 0-13.288-5.871-13.288-13.1 0-7.228 5.942-13.1 13.288-13.1 7.345 0 13.288 5.872 13.288 13.1z" stroke="#fff"/></svg>